<svg width="20" height="20" viewBox="0 0 20 20" fill="none" xmlns="http://www.w3.org/2000/svg">
    <path d="M1.6499 6.15002H17.8499V9.75002C17.8499 11.8713 17.8499 12.932 17.1909 13.591C16.5319 14.25 15.4712 14.25 13.3499 14.25H6.1499C4.02858 14.25 2.96792 14.25 2.30891 13.591C1.6499 12.932 1.6499 11.8713 1.6499 9.75002V6.15002Z" stroke="#7A90C9" stroke-width="1.5" stroke-linecap="round"/>
    <path d="M5.25 4.35C5.25 2.65294 5.25 1.80442 5.77721 1.27721C6.30442 0.75 7.15294 0.75 8.85 0.75H10.65C12.3471 0.75 13.1956 0.75 13.7228 1.27721C14.25 1.80442 14.25 2.65294 14.25 4.35V6.15H5.25V4.35Z" stroke="#7A90C9" stroke-width="1.5" stroke-linecap="round"/>
    <path d="M3.4502 14.25V18.75M16.0502 14.25V18.75" stroke="#7A90C9" stroke-width="1.5" stroke-linecap="round"/>
    <path d="M6.1499 14.25V16.95M13.3499 14.25V16.95" stroke="#7A90C9" stroke-width="1.5" stroke-linecap="round"/>
    <path d="M0.75 6.15002L2.38636 6.15003M17.1136 6.15004L18.75 6.15004" stroke="#7A90C9" stroke-width="1.5" stroke-linecap="round"/>
</svg>
