<svg width="20" height="20" viewBox="0 0 20 20" fill="none" xmlns="http://www.w3.org/2000/svg">
    <path d="M5.25 18.7499V9.998C5.25 9.02436 5.25 8.53755 5.47012 8.12922C5.69024 7.7209 6.09458 7.45765 6.90327 6.93115L8.77664 5.71149C9.24932 5.40375 9.48567 5.24988 9.75 5.24988C10.0143 5.24988 10.2507 5.40375 10.7234 5.71149L12.5967 6.93115C13.4054 7.45765 13.8098 7.7209 14.0299 8.12922C14.25 8.53755 14.25 9.02436 14.25 9.998V18.7499" stroke="#7A90C9" stroke-width="1.5" stroke-linecap="round" stroke-linejoin="round"/>
    <path d="M9.75 10.6499H9.75808" stroke="#7A90C9" stroke-width="2" stroke-linecap="round" stroke-linejoin="round"/>
    <path d="M16.95 18.7499V14.396C16.95 12.3335 16.1001 12.1666 14.25 11.5499" stroke="#7A90C9" stroke-width="1.5" stroke-linecap="round" stroke-linejoin="round"/>
    <path d="M2.5498 18.7499V14.396C2.5498 12.3335 3.39974 12.1666 5.2498 11.5499" stroke="#7A90C9" stroke-width="1.5" stroke-linecap="round" stroke-linejoin="round"/>
    <path d="M0.75 18.7499H18.75" stroke="#7A90C9" stroke-width="1.5" stroke-linecap="round" stroke-linejoin="round"/>
    <path d="M9.75 5.24988V3.43387M9.75 3.43387V1.62319C9.75 1.19641 9.75 0.983023 9.8818 0.850439C10.2955 0.434333 12 1.4186 12.6482 1.81776C13.1956 2.15482 13.35 2.8281 13.35 3.43387H9.75Z" stroke="#7A90C9" stroke-width="1.5" stroke-linecap="round" stroke-linejoin="round"/>
    <path d="M7.9502 18.7499L7.9502 16.0499C7.9502 15.2013 7.9502 14.7771 8.2138 14.5135C8.4774 14.2499 8.90167 14.2499 9.7502 14.2499C10.5987 14.2499 11.023 14.2499 11.2866 14.5135C11.5502 14.7771 11.5502 15.2014 11.5502 16.0499V18.7499" stroke="#7A90C9" stroke-width="1.5" stroke-linecap="round" stroke-linejoin="round"/>
</svg>
