<svg width="18" height="19" viewBox="0 0 18 19" fill="none" xmlns="http://www.w3.org/2000/svg">
<path d="M13.8026 0.75V2.43422M3.69727 0.75V2.43422" stroke="#7A90C9" stroke-width="1.5" stroke-linecap="round" stroke-linejoin="round"/>
<path d="M8.74603 10.0132H8.75359M8.74603 13.3816H8.75359M12.1107 10.0132H12.1182M5.38138 10.0132H5.38893M5.38138 13.3816H5.38893" stroke="#7A90C9" stroke-width="2" stroke-linecap="round" stroke-linejoin="round"/>
<path d="M1.59225 5.80261H15.9081" stroke="#7A90C9" stroke-width="1.5" stroke-linecap="round" stroke-linejoin="round"/>
<path d="M0.75 9.37597C0.75 5.70665 0.75 3.87199 1.80442 2.73208C2.85884 1.59216 4.5559 1.59216 7.95002 1.59216H9.55003C12.9442 1.59216 14.6412 1.59216 15.6956 2.73208C16.7501 3.87199 16.7501 5.70665 16.7501 9.37597V9.80841C16.7501 13.4777 16.7501 15.3124 15.6956 16.4523C14.6412 17.5922 12.9442 17.5922 9.55003 17.5922H7.95002C4.5559 17.5922 2.85884 17.5922 1.80442 16.4523C0.75 15.3124 0.75 13.4777 0.75 9.80841V9.37597Z" stroke="#7A90C9" stroke-width="1.5" stroke-linecap="round" stroke-linejoin="round"/>
<path d="M1.1709 5.80261H16.3288" stroke="#7A90C9" stroke-width="1.5" stroke-linecap="round" stroke-linejoin="round"/>
</svg>
