<svg width="20" height="20" viewBox="0 0 20 20" fill="none" xmlns="http://www.w3.org/2000/svg">
<path d="M16.6667 4.22217L16.1158 13.1334C15.9751 15.4101 15.9047 16.5485 15.334 17.3669C15.0519 17.7716 14.6886 18.1131 14.2673 18.3697C13.4153 18.8888 12.2747 18.8888 9.99359 18.8888C7.70948 18.8888 6.56742 18.8888 5.71475 18.3688C5.2932 18.1117 4.92981 17.7695 4.64776 17.3643C4.07726 16.5445 4.00844 15.4045 3.8708 13.1245L3.33337 4.22217" stroke="#FFA9A9" stroke-width="2" stroke-linecap="round"/>
<path d="M2 4.2222H18M13.6051 4.2222L12.9983 2.9704C12.5952 2.13887 12.3936 1.7231 12.046 1.4638C11.9689 1.40628 11.8872 1.35512 11.8018 1.31082C11.4168 1.11108 10.9548 1.11108 10.0307 1.11108C9.0834 1.11108 8.60976 1.11108 8.21838 1.31919C8.13164 1.36531 8.04887 1.41855 7.97093 1.47834C7.61923 1.74815 7.42278 2.17913 7.02987 3.04109L6.49149 4.2222" stroke="#FFA9A9" stroke-width="2" stroke-linecap="round"/>
</svg>
