<svg width="20" height="20" viewBox="0 0 20 20" fill="none" xmlns="http://www.w3.org/2000/svg">
<path d="M0.75 6.75H15.75C16.6819 6.75 17.1478 6.75 17.5154 6.90224C18.0054 7.10523 18.3948 7.49458 18.5978 7.98463C18.75 8.35217 18.75 8.81811 18.75 9.74999C18.75 10.6819 18.75 11.1478 18.5978 11.5154C18.3948 12.0054 18.0054 12.3948 17.5154 12.5977C17.1478 12.75 16.6819 12.75 15.75 12.75H10.75" stroke="#7A90C9" stroke-width="1.5" stroke-linecap="round" stroke-linejoin="round"/>
<path d="M3.75 12.75H0.75" stroke="#7A90C9" stroke-width="1.5" stroke-linecap="round" stroke-linejoin="round"/>
<path d="M10.75 12.75H12.75C13.6819 12.75 14.1478 12.75 14.5154 12.9022C15.0054 13.1052 15.3948 13.4946 15.5978 13.9846C15.75 14.3522 15.75 14.8181 15.75 15.75C15.75 16.6819 15.75 17.1478 15.5978 17.5154C15.3948 18.0054 15.0054 18.3948 14.5154 18.5977C14.1478 18.75 13.6819 18.75 12.75 18.75H0.75" stroke="#7A90C9" stroke-width="1.5" stroke-linecap="round" stroke-linejoin="round"/>
<path d="M0.75 0.75H11.75C12.6819 0.75 13.1478 0.75 13.5154 0.902241C14.0054 1.10523 14.3948 1.49458 14.5978 1.98463C14.75 2.35217 14.75 2.81811 14.75 3.74999C14.75 4.68187 14.75 5.14782 14.5978 5.51536C14.3948 6.00541 14.0054 6.39476 13.5154 6.59775C13.1478 6.74999 12.6819 6.74999 11.75 6.74999H0.75" stroke="#7A90C9" stroke-width="1.5" stroke-linecap="round" stroke-linejoin="round"/>
<path d="M10.75 6.75L10.75 12.9405C10.75 14.0545 10.75 14.6115 10.4235 14.7303C10.0969 14.8491 9.72821 14.4261 8.99074 13.5803L8.50926 13.028C8.1564 12.6233 7.97997 12.4209 7.75 12.4209C7.52003 12.4209 7.3436 12.6233 6.99074 13.028L6.50926 13.5803C5.77179 14.4261 5.40305 14.8491 5.07653 14.7303C4.75 14.6115 4.75 14.0545 4.75 12.9405L4.75 6.75" stroke="#7A90C9" stroke-width="1.5" stroke-linecap="round" stroke-linejoin="round"/>
</svg>
