<svg width="18" height="14" viewBox="0 0 18 14" fill="none" xmlns="http://www.w3.org/2000/svg">
<path d="M15.1313 11.25C15.6762 11.25 16.1096 10.8964 16.4988 10.4019C17.2955 9.38959 15.9875 8.58063 15.4886 8.18445C14.9814 7.78172 14.4152 7.55357 13.8411 7.5M13.1138 6C14.1179 6 14.932 5.16054 14.932 4.125C14.932 3.08947 14.1179 2.25 13.1138 2.25" stroke="#7A90C9" stroke-width="1.5" stroke-linecap="round"/>
<path d="M2.36889 11.25C1.82395 11.25 1.39051 10.8964 1.00133 10.4019C0.204647 9.38959 1.51269 8.58063 2.01158 8.18445C2.51872 7.78172 3.08497 7.55357 3.65909 7.5M4.02272 6C3.01858 6 2.20456 5.16054 2.20456 4.125C2.20456 3.08947 3.01858 2.25 4.02272 2.25" stroke="#7A90C9" stroke-width="1.5" stroke-linecap="round"/>
<path d="M5.9016 9.08339C5.1585 9.55725 3.21013 10.5248 4.39681 11.7356C4.9765 12.327 5.62212 12.75 6.43383 12.75H11.0656C11.8773 12.75 12.5229 12.327 13.1026 11.7356C14.2893 10.5248 12.3409 9.55725 11.5978 9.08339C9.85526 7.9722 7.64416 7.9722 5.9016 9.08339Z" stroke="#7A90C9" stroke-width="1.5" stroke-linecap="round" stroke-linejoin="round"/>
<path d="M11.2954 3.375C11.2954 4.82475 10.1558 6 8.75002 6C7.34422 6 6.20459 4.82475 6.20459 3.375C6.20459 1.92525 7.34422 0.75 8.75002 0.75C10.1558 0.75 11.2954 1.92525 11.2954 3.375Z" stroke="#7A90C9" stroke-width="1.5"/>
</svg>
