<svg width="210" height="55" viewBox="0 0 210 55" fill="none" xmlns="http://www.w3.org/2000/svg">
<path d="M74.048 35.192C72.304 35.192 70.816 34.84 69.584 34.136C68.368 33.416 67.44 32.408 66.8 31.112C66.176 29.816 65.864 28.304 65.864 26.576C65.864 24.816 66.184 23.28 66.824 21.968C67.48 20.656 68.416 19.64 69.632 18.92C70.848 18.184 72.312 17.816 74.024 17.816C75.32 17.816 76.48 18.04 77.504 18.488C78.528 18.92 79.352 19.568 79.976 20.432C80.616 21.28 81.016 22.328 81.176 23.576H77.864C77.656 22.792 77.232 22.176 76.592 21.728C75.968 21.264 75.136 21.032 74.096 21.032C72.944 21.032 72.024 21.296 71.336 21.824C70.664 22.336 70.176 23.008 69.872 23.84C69.568 24.656 69.416 25.52 69.416 26.432C69.416 27.376 69.576 28.272 69.896 29.12C70.216 29.968 70.72 30.656 71.408 31.184C72.112 31.712 73.032 31.976 74.168 31.976C74.84 31.976 75.44 31.88 75.968 31.688C76.496 31.48 76.928 31.184 77.264 30.8C77.616 30.416 77.856 29.96 77.984 29.432H81.416C81.272 30.664 80.856 31.712 80.168 32.576C79.48 33.44 78.608 34.096 77.552 34.544C76.496 34.976 75.328 35.192 74.048 35.192ZM89.3568 35.168C88.0768 35.168 86.9568 34.912 85.9968 34.4C85.0368 33.872 84.2928 33.128 83.7648 32.168C83.2368 31.192 82.9728 30.04 82.9728 28.712C82.9728 27.352 83.2368 26.184 83.7648 25.208C84.3088 24.216 85.0608 23.456 86.0208 22.928C86.9808 22.4 88.0848 22.136 89.3328 22.136C90.6128 22.136 91.7248 22.408 92.6688 22.952C93.6128 23.496 94.3488 24.256 94.8768 25.232C95.4048 26.208 95.6688 27.376 95.6688 28.736C95.6688 30.064 95.4048 31.216 94.8768 32.192C94.3648 33.152 93.6368 33.888 92.6928 34.4C91.7648 34.912 90.6528 35.168 89.3568 35.168ZM89.3088 32.096C90.0448 32.096 90.6368 31.936 91.0848 31.616C91.5328 31.296 91.8528 30.88 92.0448 30.368C92.2528 29.84 92.3568 29.288 92.3568 28.712C92.3568 28.136 92.2528 27.584 92.0448 27.056C91.8528 26.528 91.5328 26.096 91.0848 25.76C90.6528 25.408 90.0608 25.232 89.3088 25.232C88.5888 25.232 88.0048 25.408 87.5568 25.76C87.1088 26.096 86.7808 26.528 86.5728 27.056C86.3808 27.584 86.2848 28.136 86.2848 28.712C86.2848 29.304 86.3808 29.856 86.5728 30.368C86.7808 30.88 87.1088 31.296 87.5568 31.616C88.0048 31.936 88.5888 32.096 89.3088 32.096ZM97.82 35V18.008H101.18V35H97.82ZM103.843 35V18.008H107.203V35H103.843ZM115.651 35.168C114.323 35.168 113.195 34.904 112.267 34.376C111.339 33.848 110.627 33.104 110.131 32.144C109.635 31.168 109.387 30.032 109.387 28.736C109.387 27.424 109.643 26.28 110.155 25.304C110.667 24.312 111.387 23.536 112.315 22.976C113.259 22.416 114.371 22.136 115.651 22.136C116.611 22.136 117.451 22.296 118.171 22.616C118.907 22.936 119.523 23.384 120.019 23.96C120.531 24.536 120.907 25.208 121.147 25.976C121.403 26.728 121.523 27.544 121.507 28.424C121.507 28.648 121.499 28.864 121.483 29.072C121.467 29.28 121.435 29.488 121.387 29.696H112.723C112.771 30.176 112.907 30.616 113.131 31.016C113.355 31.416 113.667 31.736 114.067 31.976C114.483 32.2 114.995 32.312 115.603 32.312C116.003 32.312 116.371 32.272 116.707 32.192C117.043 32.096 117.331 31.952 117.571 31.76C117.811 31.568 117.979 31.344 118.075 31.088H121.387C121.179 32.032 120.787 32.808 120.211 33.416C119.651 34.024 118.971 34.472 118.171 34.76C117.371 35.032 116.531 35.168 115.651 35.168ZM112.795 27.344H118.291C118.275 26.912 118.163 26.512 117.955 26.144C117.763 25.76 117.467 25.456 117.067 25.232C116.683 24.992 116.187 24.872 115.579 24.872C114.971 24.872 114.459 24.992 114.043 25.232C113.643 25.472 113.339 25.784 113.131 26.168C112.939 26.536 112.827 26.928 112.795 27.344ZM129.768 40.856C128.776 40.856 127.864 40.696 127.032 40.376C126.2 40.072 125.496 39.584 124.92 38.912C124.344 38.24 123.952 37.376 123.744 36.32H127.176C127.288 36.64 127.464 36.904 127.704 37.112C127.96 37.336 128.264 37.504 128.616 37.616C128.984 37.728 129.368 37.784 129.768 37.784C130.52 37.784 131.104 37.624 131.52 37.304C131.936 36.984 132.224 36.56 132.384 36.032C132.544 35.52 132.624 34.952 132.624 34.328V33.44C132.336 33.904 131.976 34.256 131.544 34.496C131.112 34.736 130.656 34.904 130.176 35C129.712 35.112 129.264 35.168 128.832 35.168C127.504 35.168 126.424 34.872 125.592 34.28C124.76 33.688 124.152 32.912 123.768 31.952C123.384 30.976 123.192 29.928 123.192 28.808C123.192 27.576 123.408 26.456 123.84 25.448C124.272 24.44 124.92 23.64 125.784 23.048C126.648 22.456 127.728 22.16 129.024 22.16C129.808 22.16 130.504 22.288 131.112 22.544C131.72 22.784 132.24 23.144 132.672 23.624L132.96 22.352H136.032V33.392C136.032 34.928 135.832 36.248 135.432 37.352C135.032 38.472 134.368 39.336 133.44 39.944C132.528 40.552 131.304 40.856 129.768 40.856ZM129.576 32.144C130.28 32.144 130.856 31.984 131.304 31.664C131.768 31.344 132.112 30.92 132.336 30.392C132.56 29.848 132.672 29.264 132.672 28.64C132.672 27.984 132.56 27.4 132.336 26.888C132.112 26.36 131.776 25.944 131.328 25.64C130.88 25.32 130.304 25.16 129.6 25.16C128.832 25.16 128.224 25.344 127.776 25.712C127.328 26.064 127.008 26.512 126.816 27.056C126.64 27.584 126.552 28.144 126.552 28.736C126.552 29.344 126.648 29.912 126.84 30.44C127.032 30.952 127.352 31.368 127.8 31.688C128.248 31.992 128.84 32.144 129.576 32.144ZM144.456 35.168C143.128 35.168 142 34.904 141.072 34.376C140.144 33.848 139.432 33.104 138.936 32.144C138.44 31.168 138.192 30.032 138.192 28.736C138.192 27.424 138.448 26.28 138.96 25.304C139.472 24.312 140.192 23.536 141.12 22.976C142.064 22.416 143.176 22.136 144.456 22.136C145.416 22.136 146.256 22.296 146.976 22.616C147.712 22.936 148.328 23.384 148.824 23.96C149.336 24.536 149.712 25.208 149.952 25.976C150.208 26.728 150.328 27.544 150.312 28.424C150.312 28.648 150.304 28.864 150.288 29.072C150.272 29.28 150.24 29.488 150.192 29.696H141.528C141.576 30.176 141.712 30.616 141.936 31.016C142.16 31.416 142.472 31.736 142.872 31.976C143.288 32.2 143.8 32.312 144.408 32.312C144.808 32.312 145.176 32.272 145.512 32.192C145.848 32.096 146.136 31.952 146.376 31.76C146.616 31.568 146.784 31.344 146.88 31.088H150.192C149.984 32.032 149.592 32.808 149.016 33.416C148.456 34.024 147.776 34.472 146.976 34.76C146.176 35.032 145.336 35.168 144.456 35.168ZM141.6 27.344H147.096C147.08 26.912 146.968 26.512 146.76 26.144C146.568 25.76 146.272 25.456 145.872 25.232C145.488 24.992 144.992 24.872 144.384 24.872C143.776 24.872 143.264 24.992 142.848 25.232C142.448 25.472 142.144 25.784 141.936 26.168C141.744 26.536 141.632 26.928 141.6 27.344ZM155.361 35V21.2H150.177V18.008H164.025V21.2H158.817V35H155.361ZM165.554 35V22.352H168.914V35H165.554ZM167.234 21.08C166.61 21.08 166.106 20.896 165.722 20.528C165.338 20.144 165.146 19.656 165.146 19.064C165.146 18.44 165.346 17.936 165.746 17.552C166.146 17.168 166.65 16.976 167.258 16.976C167.818 16.976 168.298 17.168 168.698 17.552C169.114 17.92 169.322 18.416 169.322 19.04C169.322 19.648 169.122 20.144 168.722 20.528C168.338 20.896 167.842 21.08 167.234 21.08ZM171.578 35V22.352H174.602L174.89 23.768C175.21 23.32 175.562 22.984 175.946 22.76C176.346 22.52 176.746 22.36 177.146 22.28C177.546 22.2 177.914 22.16 178.25 22.16C179.002 22.16 179.666 22.304 180.242 22.592C180.818 22.88 181.282 23.344 181.634 23.984C181.97 23.52 182.338 23.16 182.738 22.904C183.138 22.632 183.562 22.44 184.01 22.328C184.458 22.216 184.914 22.16 185.378 22.16C186.354 22.16 187.138 22.368 187.73 22.784C188.338 23.184 188.778 23.744 189.05 24.464C189.338 25.184 189.482 26.024 189.482 26.984V35H186.122V27.872C186.122 27.584 186.106 27.288 186.074 26.984C186.042 26.68 185.962 26.392 185.834 26.12C185.722 25.848 185.546 25.624 185.306 25.448C185.082 25.272 184.762 25.184 184.346 25.184C183.946 25.184 183.61 25.272 183.338 25.448C183.066 25.624 182.85 25.864 182.69 26.168C182.53 26.456 182.41 26.776 182.33 27.128C182.266 27.464 182.234 27.808 182.234 28.16V35H178.874V27.848C178.874 27.576 178.858 27.288 178.826 26.984C178.794 26.68 178.722 26.392 178.61 26.12C178.498 25.848 178.314 25.624 178.058 25.448C177.818 25.272 177.482 25.184 177.05 25.184C176.458 25.184 176.002 25.36 175.682 25.712C175.378 26.048 175.178 26.456 175.082 26.936C174.986 27.4 174.938 27.832 174.938 28.232V35H171.578ZM197.799 35.168C196.471 35.168 195.343 34.904 194.415 34.376C193.487 33.848 192.775 33.104 192.279 32.144C191.783 31.168 191.535 30.032 191.535 28.736C191.535 27.424 191.791 26.28 192.303 25.304C192.815 24.312 193.535 23.536 194.463 22.976C195.407 22.416 196.519 22.136 197.799 22.136C198.759 22.136 199.599 22.296 200.319 22.616C201.055 22.936 201.671 23.384 202.167 23.96C202.679 24.536 203.055 25.208 203.295 25.976C203.551 26.728 203.671 27.544 203.655 28.424C203.655 28.648 203.647 28.864 203.631 29.072C203.615 29.28 203.583 29.488 203.535 29.696H194.871C194.919 30.176 195.055 30.616 195.279 31.016C195.503 31.416 195.815 31.736 196.215 31.976C196.631 32.2 197.143 32.312 197.751 32.312C198.151 32.312 198.519 32.272 198.855 32.192C199.191 32.096 199.479 31.952 199.719 31.76C199.959 31.568 200.127 31.344 200.223 31.088H203.535C203.327 32.032 202.935 32.808 202.359 33.416C201.799 34.024 201.119 34.472 200.319 34.76C199.519 35.032 198.679 35.168 197.799 35.168ZM194.943 27.344H200.439C200.423 26.912 200.311 26.512 200.103 26.144C199.911 25.76 199.615 25.456 199.215 25.232C198.831 24.992 198.335 24.872 197.727 24.872C197.119 24.872 196.607 24.992 196.191 25.232C195.791 25.472 195.487 25.784 195.279 26.168C195.087 26.536 194.975 26.928 194.943 27.344Z" fill="#5C6C9F"/>
<g clip-path="url(#clip0_30_15)">
<path d="M22.4915 49.13H19.5085V5.86996H22.4915C30.0107 5.86996 36.1279 11.9849 36.1279 19.5012C36.1279 27.0176 30.0107 33.1325 22.4915 33.1325V49.13ZM22.4915 8.8518V30.1506C28.3658 30.1506 33.1449 25.3733 33.1449 19.5012C33.1449 13.6291 28.3658 8.8518 22.4915 8.8518Z" fill="#5C6C9F"/>
<path d="M36.2862 5.71164C32.6016 2.02836 27.7024 0 22.4915 0H19.5085V2.9009H22.4915C31.6485 2.9009 39.098 10.3477 39.098 19.5012C39.098 27.6367 33.2124 34.4239 25.4745 35.8332V38.7767C29.5526 38.1547 33.3147 36.2613 36.2862 33.2908C39.9709 29.6075 42 24.7102 42 19.5012C42 14.2922 39.9709 9.39492 36.2862 5.71164Z" fill="#5C6C9F"/>
<path d="M5.71378 49.2884C9.39844 52.9716 14.2976 55 19.5085 55H22.4915V52.0991H19.5085C10.3516 52.0991 2.90199 44.6523 2.90199 35.4988C2.90199 27.3633 8.78764 20.5761 16.5256 19.1668V16.2233C12.4474 16.8453 8.68537 18.7387 5.71378 21.7092C2.02912 25.3925 0 30.2898 0 35.4988C0 40.7078 2.02912 45.6051 5.71378 49.2884Z" fill="#5C6C9F"/>
<path d="M16.5256 45.7229C12.0988 44.4301 8.85515 40.3365 8.85515 35.4988C8.85515 30.6611 12.0988 26.5675 16.5256 25.2746V22.1969C10.4361 23.5608 5.87219 29.0062 5.87219 35.4988C5.87219 41.9914 10.4361 47.4368 16.5256 48.8006V45.7229Z" fill="#5C6C9F"/>
</g>
<defs>
<clipPath id="clip0_30_15">
<rect width="42" height="55" fill="white"/>
</clipPath>
</defs>
</svg>
