<svg width="222" height="291" viewBox="0 0 222 291" fill="none" xmlns="http://www.w3.org/2000/svg">
<g clip-path="url(#clip0_124_1378)">
<path d="M118.767 259.885H103V31H118.767C158.511 31 190.845 63.3534 190.845 103.122C190.845 142.89 158.511 175.243 118.767 175.243V259.885ZM118.767 46.7766V159.467C149.817 159.467 175.078 134.19 175.078 103.122C175.078 72.0531 149.817 46.7766 118.767 46.7766Z" fill="#7A90C9"/>
<path d="M191.799 30.2198C172.323 10.7319 146.427 0 118.884 0H103.116V15.3484H118.884C167.285 15.3484 206.661 54.7487 206.661 103.179C206.661 146.223 175.551 182.134 134.651 189.59V205.164C156.206 201.873 176.092 191.855 191.799 176.139C211.275 156.651 222 130.739 222 103.179C222 75.6189 211.275 49.7077 191.799 30.2198Z" fill="#7A90C9"/>
<path d="M30.2014 260.78C49.6775 280.268 75.5729 291 103.116 291H118.884V275.652H103.116C54.7154 275.652 15.3391 236.251 15.3391 187.821C15.3391 144.777 46.449 108.866 87.3494 101.41V85.8362C65.7936 89.1267 45.9084 99.1449 30.2014 114.861C10.7253 134.349 0 160.261 0 187.821C0 215.381 10.7253 241.292 30.2014 260.78Z" fill="#7A90C9"/>
<path d="M87.3495 241.916C63.9504 235.076 46.8056 213.417 46.8056 187.821C46.8056 162.225 63.9504 140.566 87.3495 133.726V117.442C55.1622 124.658 31.0386 153.469 31.0386 187.821C31.0386 222.173 55.1622 250.984 87.3495 258.2V241.916Z" fill="#7A90C9"/>
</g>
<defs>
<clipPath id="clip0_124_1378">
<rect width="222" height="291" fill="white"/>
</clipPath>
</defs>
</svg>
