<svg width="20" height="20" viewBox="0 0 20 20" fill="none" xmlns="http://www.w3.org/2000/svg">
<path d="M9.5269 14.7753C12.2387 11.8738 14.8566 9.90547 18.1451 7.11803C19.1294 6.2837 19.2814 4.82125 18.5092 3.78512C17.6886 2.68393 16.1293 2.46383 15.0738 3.33926C12.0616 5.83774 9.71816 8.24341 7.49511 10.8146C7.37846 10.9496 7.32013 11.017 7.2596 11.055C7.10608 11.1513 6.91425 11.1523 6.75973 11.0577C6.69879 11.0203 6.64036 10.9542 6.52349 10.8218L5.33892 9.48063C4.25809 8.25687 2.31947 8.39234 1.41705 9.75468C0.785539 10.708 0.879122 11.9715 1.6441 12.8201L3.50164 14.8806C4.89101 16.4218 5.58569 17.1924 6.41966 17.2C7.25364 17.2075 8.01139 16.3968 9.5269 14.7753Z" stroke="#8CC78E" stroke-width="2"/>
</svg>
