<svg width="14" height="15" viewBox="0 0 13 20" fill="none" xmlns="http://www.w3.org/2000/svg">
<path d="M6.19551 4.34998L3.8336 14.3269C3.64564 15.1209 3.74908 15.4182 4.39698 15.9884L7.01704 18.2941C7.36241 18.598 7.53509 18.75 7.74968 18.75C7.96426 18.75 8.13695 18.598 8.48232 18.2941L11.1024 15.9884C11.7503 15.4182 11.8537 15.1209 11.6658 14.3269L9.30385 4.34998" stroke="#7A90C9" stroke-width="1.5" stroke-linecap="round" stroke-linejoin="round"/>
<path d="M4.80638 1.76163C4.73897 1.29013 4.70527 1.05438 4.85892 0.902189C5.01256 0.75 5.28427 0.75 5.82769 0.75H9.6714C10.2148 0.75 10.4865 0.75 10.6402 0.902189C10.7938 1.05438 10.7601 1.29013 10.6927 1.76163L10.6419 2.11737C10.4993 3.11446 10.4281 3.613 10.0718 3.93644C10.014 3.98899 9.95132 4.03735 9.8845 4.08105C9.47329 4.35 8.89871 4.35 7.74954 4.35C6.60038 4.35 6.0258 4.35 5.61459 4.08105C5.54777 4.03735 5.48512 3.98899 5.42724 3.93644C5.07104 3.613 4.99977 3.11446 4.85723 2.11737L4.80638 1.76163Z" stroke="#7A90C9" stroke-width="1.5" stroke-linecap="round" stroke-linejoin="round"/>
<path d="M4.24972 12.45C3.64197 13.0732 3.12735 13.35 2.74975 13.35C2.26537 13.35 1.39337 12.2515 1.00637 11.4558C0.82478 11.0825 0.733986 10.8958 0.752044 10.6597C0.770102 10.4235 0.889029 10.2508 1.12688 9.90539C2.47189 7.95209 4.76425 6.16899 6.24968 4.34998" stroke="#7A90C9" stroke-width="1.5" stroke-linejoin="round"/>
</svg>
